<mxfile host="app.diagrams.net" modified="2022-09-17T11:55:07.765Z" agent="5.0 (Windows NT 10.0; Win64; x64) AppleWebKit/537.36 (KHTML, like Gecko) Chrome/104.0.5112.81 Safari/537.36 Edg/104.0.1293.47" etag="p8JAm152B7d4V5mgB1S6" version="20.3.2" type="github">
  <diagram id="iDHRphdrYspVFJYyZFii" name="第 1 页">
    <mxGraphModel dx="1786" dy="1033" grid="1" gridSize="10" guides="1" tooltips="1" connect="1" arrows="1" fold="1" page="1" pageScale="1" pageWidth="827" pageHeight="1169" math="1" shadow="0">
      <root>
        <mxCell id="0" />
        <mxCell id="1" parent="0" />
        <mxCell id="1XECBDvFI1evGuoP0mXp-1" value="" style="shape=image;verticalLabelPosition=bottom;labelBackgroundColor=default;verticalAlign=top;aspect=fixed;imageAspect=0;image=data:image/png,iVBORw0KGgoAAAANSUhEUgAAAjAAAAArCAYAAABmf7IeAAAgAElEQVR4nOx9WXCb53X2gx3ERmwkSIAgSIA7uIibJEuKbFFS7dhxJtMtk3Z60YvONNObdKbXnVz3ujdpp520M81NM8kfO3Yk2ZYtS6LEfd9AgAsIYt8XYgf+C895DYo7JSV1zGfGNzLxfe/7vdt5z3nOczjlcrmMC1zgAhe4wAUucIFvELh/6AZc4AIXuMAFLnCBC5wVFwbMBS5wgQtc4AIX+MbhwoC5wAUucIELXOAC3zhcGDAXuMAFLnCBC1zgG4cLA+YCF7jABS5wgQt848A/yx+Xy2VQ0hKXe2H7XOACfyjQWiyXy+ByueBwOL/X916s/7OhVCoBADgczu9trOidwMV+/TpwcR4eD5p/Z/k2Z10npzZg8vk8MpkMcrkchEIh5HL5qRt1gf97KJfLv7eN9AKvHoVCAel0GslkEmq1GiKR6LWOZ7lcRj6fRyqVQi6Xg0ajAZ9//PZxMce+xt7eHvL5PHg8HqqqqsDn81/rtymVSohGoyiVShCJRJBKpReH7CtEqVRCLpdDMpkEAGg0mou5XoF8Po9QKAQ+nw+JRIKqqqoTv0+hUGDfUygUnuo3vJ/+9Kc/PakxxWIRXq8Xjx8/xtjYGBKJBCwWCwAc+oJSqbTPOv1jGFjqT+Wt5pvYr8p+/DGNz7cNHo8Hz549w3/913/BaDRCq9WCx+O9lneR8bKxsYGPPvoIH330EXp6eiCTyQ6dO38sa+VVgL7FxMQEJicnsbGxAaVSCZlM9toMilKphFgshl/+8peYn59HJpNBXV0dhELhoX9fLBZRKQf2bR2r06JUKiGVSsFms+GXv/wlpqamMDw8DB6Pd+R5WLnfAn/c37hcLsPpdOJf/uVfsL6+DgAwGAzHeopLpRJCoRAePnyItbU1xONxGAyGEz0xJ3pgSqUSNjc3sbi4iOnpaTQ3N6OmpubIhkciEczOzqJQKEAgEEAqlaK1tRXV1dXf2BtAoVDA/Pw8gsEgSqUSJBIJmpqaYDAYXtuh8boQCoWws7MDr9cLHo8HlUqFxsZGKJVKiESiP3TzLnBKSKVSKJVKyOVyjI6OIp1O48qVK698PpbLZSSTSbjdbnz22Wfwer1oaGiAUCg8crOen5+H3+9HsViERCKByWSC0Wj8xq2VV4mamhp4vV7Mzc1BLpejXC7DaDS+8j2xUChge3sbU1NTSCaTqKurQ11d3aHesmQyid3dXTidTuRyOchkMtTU1KCurg4qleqP+pA9L8rlMuLxODY2NvDZZ58hl8vBYrEcOY57e3uYn59HLBYD8NW6tVgs0Ol039jz8DQQi8VoaWnBzs4Onj9/DrVajaamJlRXVx86rzgcDkQiERobGzE9PY1wOAyFQoHm5mYolcoj5+KxHphCoYBEIoGnT59iZmYGyWQSt27dQnd396Eu63K5DJ/Ph08//RQLCwuw2WxwuVxQqVSQy+UQi8Uv+Vl+/6Db5+PHjzE1NYXl5WVsbm6Cy+VCqVSiqqrqGzURPR4PFhYWMD4+jtXVVXi9XnC5XMjlckgkkm9UX77NqKqqglgsRlVVFcbHxxGLxdDY2AiRSHTkTfA8yOfz2N3dxcTEBEZHR6HX6/Hee++hvr7+wKFIXpcnT55gcnISy8vL2NraAgCo1WqIxeLfK1/n/wLoBqlSqZDP5zE3N4dYLAYOhwOdTgc+n//K1ly5XEY4HMbU1BQePnyIrq4uDA4OoqOjAwKB4MDf00H8/PlzzM3NYWNjA8lkElKpFFqt9ls3ViehXC4jl8thY2MDExMTmJiYwPDwMG7fvg2FQnHoeZhMJvHll19idnYWKysr2NraglgshkKhgFQq/aP8vmSMGAwGOJ1O2O125PN5aDQaVFdXH2pMczgcCIVC1NXVYXt7GxsbG/D5fFCr1ZDL5Ud6D481YFKpFFZWVnD//n0Eg0F8//vfR2dn57EWUalUAofDwfr6OpaWlmC321EulyGXy9HQ0PCNGzBqbz6fRzKZxM7ODlZWVuDz+ZDP59Ha2gqBQPCN6hePx8Pe3h7sdjvm5+fhdDpRX19/rJv5Av/3IBaLodPp4PP5sLu7C7vdjubmZsjl8ld2KEajUYyPj+PDDz9EW1sbrl+/jp6enkPnPB3W2WwWqVSKrRWv14tMJgOz2QyRSPStNJK5XC64XC7EYjGePHkCj8cDlUoFjUbzSjyfFKZ49uwZFhcXkcvlcOfOHZjN5iPXtFAohFarRSaTgdPpxNTUFDweD6qrq2EymZjBeYGvUCwWEQqF8OjRI4yOjqK7uxtXrlyB2Ww+9DvR+igUCojH43A6nVhcXEQwGAQAdHR0/F5J3b9P0KW4WCwiEongyZMnqK2tRU1NDRQKxaG/4XA4bJ2EQiH8+te/hlwuh0qlQm1t7aG/OdKAKRaL8Pv9ePz4MaLRKJqamnD79m2oVKojFwSHwwGPx4NcLkc6nUY0GoXT6USxWIRarUZbW9srvR3+vsDhcCAWiyEWi1Eul7G2toZYLAahUIje3l5GyvsmgEiEarUagUAATqcT4XAYRqMROp0OKpXqD93EC5wSXC4XfD4f5XIZwWAQS0tL0Gq1UCgUR/JTTgvypiwtLWFpaQmhUAi3b99Gd3f3kW5g4OvbV1VVFQBgfX0dkUgEPB4Pvb29kEql35i18qpBe2MgEEAymUQymURLS8tLjxXwVahiZ2cH9+7dQyQSQW9vL3p7e48dK5o/VVVVyGaz2N3dRTQahVgshkqlgk6nO9Rz820E8V7Gx8exsrICAHjnnXdgsVgglUqP/B2Xy4VEIoFQKEQ2m8XKygr29vYglUrR19cHPp//RxlaJWOEzky73Q6RSASJRAKj0Xik4UaemHK5jEAggHw+j6qqKrS2th76myMNmGQyiY2NDTx48AC1tbUYGhpCb2/vid4GPp8PuVwOPp/PPDh7e3vMgPkmHfYEDocDiUQCqVQKgUCAtbU1hMNhcDgcdHR0oLq6mm3Y/9dRacAEg0Hs7u7C4/GgtrYWOp3uG+kl+zaD5mYwGMTi4iL4fD40Gg3q6+tfahyLxSLS6TSePn0Kp9MJrVaLW7duMWLdcaC1IhKJYLPZEAwGUS6X0dHRAaVSCYlEcu52fZPB5/MhlUqxt7cHn88Hu92O9vZ2VFdXv5QXhgzYmZkZjI2NQSaT4e7du6ivrz/xuVwuFwqFArlcDj6fD263G8ViEVKpFB0dHa89u+2bgmw2C4/Hg/v37yMajaK5uRkjIyNQq9XHfh8ulwupVAqJRMJCiIlEAhKJBB0dHWyd/LGCwmQ7OztsH2huboZAIDjScCMvbTabxcbGBsrlMlpaWlh4vBKH+gfL5TL8fj9WVlawuroKjUaD9vb2M8VEW1pa0N3dDY1Gg0KhAK/Xi42NDWQymTN+gv87kMvlaG5uRk9PDzQaDaLRKBYWFhAOh//QTTsTOBwO+Hw+Ghsb0draCh6PB5fLxbxlFwXKvzngcDhQKpUwGo0wGo3Y3t7G7u4uCoXCS41jPp9HNBrF8vIykskk+vr6oFAoTh1SkMlkaG5uRnd3N2pqahCLxZgn59sK8lDX1dVBLBZja2sLCwsL8Hq9L/VcCm2Mj4+Dy+WiubkZ7e3tp75UEZ+vqakJIpEIfr8fdrsd6XR6XybZtxnEF5qbmwMAdHV1nSrNl6BUKmEymVBfXw+BQIBgMIi5uTnE4/HX2ew/ODgcDmQyGdra2hAIBDA3NwebzYa9vb0Tf2M2m5FKpbC+vo6FhQWkUqkDf3tgNyqXyygWi3A6nXA4HNDpdDAYDFCr1WdqOJ/Ph1KpREtLCyQSCWKxGDY3N5FOp7+xByS5xJqbm6FWq7G3t4fV1VUEg0EUi8U/dPPOjNraWphMJmbA2O12hEIh5HK5P3TTLnAGcLlcqNVqmM1mBINB2O12OJ1OFAqFcz2PyKATExPwer2QSCTo7Ow8k+eEy+VCJBLBZDJBo9EgnU5jbW0NgUDgG7lWXhU4HA4aGhpgMBjA5/Oxvr4Ot9v9UntiIpGAy+XC0tISpFIpdDrdkVliR6Gmpga9vb2oq6tDqVRiz/s2G5yEYrGIYDCItbU15HI56HQ6tLS0nCm8xuPxoFAo0N3dDbVajXg8jsXFRUSj0T/69aBQKHDp0iVUV1cjEAhgcnISsVjs2DkvlUrR1tYGjUaDRCKBhYUFxOPxA7851ICheKrL5UJjYyN0Ot2ZQyQcDgcKheKAAZNKpU49YJV6EvTfi/+/VCqhWCz+Xm4KFN9vampCTU0NCoUCNjY2sLu7i0QiceLvqT/FYvFUbX7dhp5KpUJDQwMj8rlcLmZknhWHaR0QKjWBXiUqx/7F51fOm/O++7D5d9KzXravx7W7Un33RZCXFAB8Ph9cLhfy+fy52kAiaCSHoNFozkzw5nA4EAgEMJlMqK2tRbFYxObmJlwu14mbVyUq1zh5B+m3L47P61wvL7ajcu2etR0KhQI1NTVQKpXY2dlhCQHnbX80GoXX64Xf70dtbe2JmhuHQSaTobGxEU1NTZBKpYhEIlheXmaE0+Pw+14jR73/tOfAWd9NBv3W1hYkEgnq6+tRW1t7Ju4KeRW6u7tRW1uLTCYDm80Gj8dzqGfhpPZUanlV9ue4PeJV4EUNscPa9eL/E4vFzPtULBZPZbgRwVyn06FUKjFtmBd/c8CAKRaLiEajLGZlNpuhVqvPzEbncDiQy+Voa2uDXC5HPB7H5uYmYrHYqTfWQqGAvb09JBIJJBIJpmZJk5WUSBOJBJLJJHK53Gs3ZAQCARobG5m2gsvlwtbWFnw+37G/o3Tsvb09xGIxxOPxYw0FUnqk/r4OSKVS1NfXo62tDRKJBOFwGAsLC6cyxirbSf1KJpPY29tj4Qsy1vb29o51GZ4V9G1obsTj8QNzo3JepNPpc3kjKtU2E4kEUqkUMpnMoQuvXC6jUCggm80im82e+V20MVAGz2Htpu+cTqcPtEGj0aCjowNqtRrpdBper/fcYaRyuYxEIoG1tTXI5XIYDAZIJJIzkw0pTEluc7fbjY2NjVN7HCq/x4t7AK2nyj3gvON8mnbQt69sR6FQQKlUQqFQQCqVQjweRzKZRCaTOXbNcrlcVFdXw2AwIBQKIRAInNszTYcr6e40NzfDaDSe+Tl8Ph8ymQzt7e3Q6XRIp9Ow2WwIhULH9oW+DY0Dzduj9vhisYhcLodMJvNKxoqel0wmEY/HkUqljt0zc7kcstnsmQxGEgZ0u92MKygWi8/MDZJIJOjq6kJdXR3K5TK2t7extbV1KiORUHmO0L5X+R0LhQIymcyBf38VoGfT/M/lcuwb0jiQUnclaG6ZTCYoFApsbW0hGo0eawe8GG51Op2H2g4H2LTkLkulUhCJRNDr9ceyrI9DdXU1rFYrmpqaEAgEEAwGsbq6ykRtjgLl29tsNqZeKRQK2WFrNptRKBQwPj4Oh8OBdDrN3FQdHR1oaGg4V3tPA0oPa2pqgsViwcLCAjweD3Z2dtDW1nakMmkul8PS0hImJycxMzMDvV6PwcFB3L59GwKBYJ+BSDHtsbEx6HQ65vF51WQ6IvBZrVbs7OwgHA5jdXUVb7zxBrvFHYdCoYBAIAC73c5cfHK5HDdu3GBpmG63G7/73e9QLpfx93//9y+dhVYul1m4a3t7m42/2WxGf38/6uvrkc/n8b//+78sJbSpqQmXL1+G1Wo99fsrBatGR0cRDochEolgNBpx8+bNfWTncrmMdDqN7e1trK2tgcfj4e233z51ej3Nj1gshuXlZaysrLD51N/fj66uLnC5XExNTWF1dRUymQyXL1+GyWRizyCPR21tLYLBINxuN9tgzvq9s9ksYrEYPB4PTCYTu8Cc9TlcLpfd7FtbW7GwsAC3242trS20t7cfm0JK+9CzZ8+wtbXFtFMaGxvR2dmJ9vZ22Gw22Gw2OJ1OZLNZ6PV6dHV14fLly2cOoRyFQqGASCSC1dVVpmsjFothMBhgtVphNpvh9/vx6NEjOBwOyOVydHd3Y2RkBCqV6lCjj27jOp0OKysrCIfD8Pl8qKqqOpOXiy4JdCESiURMa+OsIO+y0WiEWq1GNpvF5uYm8xAclilVLpeRzWaxs7OD+fl5rK+vI5vNoqGhAV1dXXjjjTfYs+nvt7e3YbPZkE6nYbVaWXbJeUDcyuXlZczMzCCTyUCr1aK3txetra2oq6vb19ZCoYDHjx8jkUigoaEB7e3tJ5bEoT5Go1GEQiG0tbUdm9l1HPh8PlQqFYxGI+rq6uBwOLCzswO3243m5uYTn1ksFlkm0+TkJJaWltDf34+hoSF0dnaCx+PBZrMxWgOl0b/sOiCjyWazYX5+nmU7dnR04PLlyyyzbn5+HgsLCxgcHMTIyMi+93I4HNTW1kKj0bALfyQSOTayw+Fw2Hze3t6G1+tFNBrd95sDBkyhUIDf70cikQCPx0N1dfW5tUGEQiEzVjY3N7Gzs4P19XVYLBaYTKYjD/tMJoMvvvgCdrsdsViMGVA+n49tfkKhELOzs2yT2NzchFAoRHV1NfR6/WvTL6A0L71eD4vFwnQudnZ2UCwWDxyQZL1PTEzA4XAgGAyioaEBOzs7yOfzqK2tRUtLC5RKJfuN1+vFwsICPv/8c1itViYs9aoNGPKSWa1WzM7OwufzweFwwOVywWAwHJtSXSqV4PV6MT8/jy+//BJbW1tIpVKQSqXI5XLo6+uDUqnE1NQUfD7fqbJXTkKhUIDH48Hs7CyWl5dZnQ0ul4udnR3kcjlIpVLk83m4XC7kcjkIBALMz8+juroaOp0ONTU1J3oSisUiEokEJiYmsLCwwLwAXq8XdrsdFosFWq2WLSQydp49e4b19XXU1tbi9u3bp653UyqV4Pf7MTo6isXFRayvryMQCGB3dxepVArpdBoikQgrKyvw+/1oaGg4NHOBx+NBJpNhe3ub9f88t/pEIoFwOMzeK5FIzjV2lWulpaWFCScSmf8or06pVILD4cDCwgJWVlb2pWPOz88jHA4jm81ibGyMkZiXl5cRjUYBAJcuXXol2kyFQgHhcBiPHz+Gx+NhRlIikWC3Z6vVikwmg+3tbVRXV2Nvbw9TU1PQaDTstn1YO8RiMTMMw+Ewdnd3z+U5oTZGo1HIZLKXymrh8/kwGo0seykajWJ3dxderxcWi+VAP9LpNNxuNz799FNEo1H2HVwuF7LZLIaGhtgaoDWytLSER48eQSwWQ6vVwmKxnNmzR95Kj8eDpaUlTExMQCaTIRQKwW63QygUQqPRQKfTsTYnk0k4nU48e/aMeepMJtOpavpFo1FEIhFks1lIJJJzeV+Ar41EUkd2OBwsC7RUKh37HUhqf3V1Fc+fP8fMzAy2t7cRjUaRSCQQi8VgMBiwuLiIra0tNDQ0vJIU+HK5jFQqhbW1NTx//hzT09PY3t6GQqFgafeNjY1wu92YnJyEQqE40l6orq6GQqFAoVCA2+1GKBSCXq8/9v3V1dWQyWTI5/Nwu90Ih8Oor69n//9QA4Z0CmjjOG/aM2W7mM1m2Gw2bGxsYGNjAx6PB/l8/tBNhhbFb3/7W2QyGVy5cgVvvPEG2xgePHiA7e1tFk/r7+9HIpHAgwcPsLu7y1yer1MgiFQ0SZgrEAjA5XKxA7zye+VyObjdbnzwwQfg8/no7u7G3bt38a//+q9YXFyEWq2GWq1mVn25XMbW1ha+/PJLTE5Oshvd64ppUo69Xq/H8vIyPB4PNjY20NTUdKQBQ6EhWkzz8/Ns8e3t7WFpaQmFQgEymQyjo6O4du0arl+//lJ6B+TlmJ2dZVLT165dQ0dHB3K5HO7fv89Y/aTPQ+GUsbExOBwOWCwWaDSaE9uRzWbhcDhYCvH777+PcDiMxcVFzMzMwO12o6WlhRkw+XwewWAQT548QTKZhFwuPxMnI5FIwOFw4OHDh4hEIshkMqiqqoLf78fCwgIymQw4HA7S6TTq6urwxhtvHCDUku6CUChEKpVCNps9twETi8VYZp1AIHipjZBuXhaLBWKxGMFgEFtbW4hEIoemUpZKJezt7WF6ehpPnjyBRqPB4OAgjEYjcrkcfvazn2FnZ4cJMV69ehXXrl2Dz+d7ZRlYwNdhtI2NDXz55ZdQKpUYHh7G9evXsby8jIcPH+I3v/kNtre3odfrodVqcf36dWbQT0xMQKlU7jtEKyESiZgqKXm7zkrmpHUYiUSQSCRYOvZ5L2/kstfr9VCpVPB4PHC5XNje3kZzc/O+55bLZeaZevbsGTo6OtDd3Y1wOAy73c4uMiRMRrpii4uLGBsbQ2tr67nDZhTatdlsWFhYQCgUwt27dzE7O4vx8XHGs6o0CmKxGKampjA/Pw+hUIi2tja2Rk86J8LhMOLxODPIX+Y8pLODynF4vV643W7s7e0dG6bd29uD0+nEkydPsLq6ilQqBY1Gg0AggKmpKUQiEXR2dmJ9fR08Hg9vvvnmK7n05nI5BAIBPHnyBIuLiwgEApBIJEin01hdXYXH40FTUxOi0Sg8Hg/+7u/+jnlXX4REIoFEImGK/ZFI5MT3Uwo6XZjpkkLYNxKVnIV8Ps82xJfxZnC5XPT09MBut+Phw4dwOBxwOBzw+XwH5MhLpRLsdjs++ugj1NfXo7u7G9evX4dMJmO3Qh6Ph1wuh/r6enzve9/D+Pg4xsbGsL6+js7OTjYhX7d2gVqthslkglarhc/ng9PpxNraGtra2vZ5U3w+H1ZWVhCPxzEyMoLr168z0m8qlcL29jb29vbYQqbb+ObmJpNfrqure20eJcoWIe8EkdV2d3ePnIg0T54/f454PI6f/OQn0Gq1rJqoRqPBysoK1tbW0NHRgb6+vmNDhqdBqVRCPB7H/fv3oVAo8N577+HSpUtQKBRwu93s9svlctHf34+7d+9idXUV9+7dQygUgtFoZJvaSe8JhUL45S9/Cblcjj//8z/H8PAwfvvb3zIdA4q1a7VaAF+lWLpcLvj9fiiVSmi12lNLxJfLXxX6m5ubg8lkwg9/+ENoNBqkUikEg0FkMhnEYjGMjo6ir68PQ0NDRx5StF55PB4T3srlcmfecInHUy6XX2rDJqhUKphMJtTU1MDpdMLn82Fubg7Dw8MH3Pyk/bCxsYFSqYS/+Iu/gF6vh1AoZB42UpB+9913oVar8fz5c8zOziKXy514ozstSqUSVlZW8MUXX7A5bLVaIZPJ2KWDw+GgVCrBbDbjrbfewueff47x8XGEw+ETeTAikYilpefz+RP//ihwOBzG/aPb73n3PjKCyfDy+/3w+/3Y3t4+4F3O5/NwOByYnZ3Fn/zJn8BqtYLL5WJ0dBQ8Hg9cLhfpdJrdxkulEnZ3dxEOhyEUClkm53n2tUKhgFgshvn5eXC5XPz4xz9GMplEOBxGoVCAy+VCNBrdt6dW7rUajQbNzc2n8qQQDyuXyzED5mWF5wwGAzo6OmAymRAIBLC9vQ273Y7W1lbIZLJDf2O327G+vg6RSIS//du/hUqlQi6XQygUQigUgtfrxWeffYampiYMDQ2hpqbmlXhgAoEAlpeXsb29jRs3bmBgYABcLhcOhwN2ux0OhwNLS0vQaDR4++23YbVaj7z4VhowmUzmVCFuMmBob3jxNwd2plKphEwmg3w+z0pan3cDo7ij3W6H1+uFWCxmgkBbW1tsoyeQ697r9eLWrVu4dOkSsyLj8ThrPMWPTSYTNjc3UVNTA6PRCKvVeiruxsuA4s60sKndsVgMNpsN9fX1+7wppVIJXC4XFosFTU1NEIvFWF1dRTQaZaqE5KKngQ2FQvD7/azY4usqrEbvc7vdcDqdCIVCLE69s7ODTCZz6GFJBKurV6+iUChgYGAAUqmU3Qa3t7eRTqehVqtx6dIlWCyWlxYvI/6UQqFAR0cHenp6WL2WcvmrmiPZbBbV1dVobW1FfX09EokEWlpaUF9fj66uLjQ2Np64+dCcTaVSaG9vh9VqZboN8XgctbW1qK2tZRsN3UR3dnaQTqf3VYY+zZhRWq1AIGAF0ORyOTNcnj9/jvX1dQwPD6O/vx+NjY1HrsfKG2Imk2GExrOikoj8sh6YUqmEQCCAjY0NJBKJfVyf1tbWfR4KDoeDTCaD2dlZiMVixqWSyWTMoCODjLQlSIRNoVBArVajt7f3pfkv1GYqgdDT08MK0gJghN1yuQyFQsGkJnQ6HYxGIxQKBYaHh48VEyQDhs/nMxIsZVmdte25XA6FQuHIOjNn6Xc0GkU0GmWXKgrbR6NRpsJeKpUQDAbh8XiQTCbR0dEBlUrFODNEUqa9g9YUhQCEQiGMRiNUKtW59uq9vT2sr69DLBajtrYWjY2NePLkCUKhEFO+rSyDUCqVkEgksLm5ybLqyIA5DTKZDLLZLAsBnXc90HkQDocZcTefz7PQV0NDw5H1kYik39zcDIvFArlczkoUPHz4ELu7u+jt7UVXVxfa2tpeGQdMKpUyFX6LxcI4NUqlErlcDo8fP4ZSqURfXx9u3LgBrVZ75PepNEbom5403yUSCaqqqo40eg41YIhFLhKJzu2SpNiZx+PB8+fP4XK5oNPp4PF4mFBSX1/fARKPRCJBQ0MDuru7meQwEdUCgQBKpRLUajVqa2shEAhgsVhQLpeh1+sxMDDAfvM6QAsxHo9jYWEBi4uL0Ov1jH1vs9kwMDCw7wOLxWLU19dDIpFAr9cjFothcXER8Xgcer0efX19zOChhUYbiFqthkqlOjeJ+qS+kDE5OjoKn8+HcrkMLpcLn8+HnZ0dBAIB6HS6I/kWt27dYrc2OshDoRBsNhsAoL29HQMDA6+k4CVlOVBxOjocqEaVx+NBJpOB0WhEc3MzJBIJGhsbMTIygnQ6jY6ODjQ1NZ1owHA4X5WNaGtrQ2trK9RqNbxeL0t1tVgs0Ov17DArl8uswnehUIBarT5zpdn29nZGZuRyucjlcsjlcohGoyyUc+fOHTQ2Np646ZIBQ6GY82QiZLNZJqfGN1EAACAASURBVDj5MgYMZTQuLi5iamoKQqEQIpEIqVQKq6uruHbtGpqbmw/Mr3Q6jZaWFgwMDDDjngStiFBKmYAajQYcDgdutxtGoxE9PT2vRD02nU4zzafW1lZoNBoAYIc3ZR3W1NRAq9VCLBajq6sLYrGYVQY/7uIhFAohl8uZR7nSC3sW0DouFosvZcCQ5311dRUulwuFQgFisRipVAq7u7vY3d2FWCxmHhW63JCmTSwWg8PhgNfrhU6nY9IbtDfkcjk4nU4Eg0EIBAIYDIYja+KcBPL0trS0QK/Xg8PhwOPxIBQKgc/ns0skrcG9vT0Eg0Hs7OwwpWoqpHkaVBow5/VIEhGWxCGJ8E0hRIfDgeHhYTafX4TBYGDeRS6Xy7K/YrEYK2tz+/btfRfiVwHirVAZoMp3UyZSX18frl27hs7OzhONEbrIkjflJEilUmYjpNNpZvQQ9o1EZUogucwohnlWkO7DBx98gM3NTYhEIlitVmaIOBwOZDIZyGQy9nw+nw+r1Yrm5mZIpVLweDxmtYZCIezu7qJYLEKr1aK2thYcDgcmkwl6vZ4tuNdZV6JUKiGZTGJiYoLxFf7xH/8Rv/jFL/Ds2TPYbDbE43HmdeFwOKx4Fd0up6enMT8/j2KxCJ1Oh66uLnabLxQK8Pl8iMfjEIvF7AB91R4l+qY+nw8TExP4n//5H4yMjKCxsREffvghMpkMdnd3sby8DIVCceCAOSxEVywWMTMzgwcPHqC5uRmDg4Po6up6ZYupoaGBZWJVkmPT6TSCwSDW19eRTqdZ1hEtFrrh8/n8U208XC4XNTU1+Ju/+RsIhUIkEgnYbDaEw2HGF1IoFGxuFgoFNjcLhQLq6+vR2Nh4pjGrXGPFYhFerxeTk5P4zW9+g4GBAfzTP/0TVCrVie2v3GDJk3oeA4bSMAGc+ru9CHLbT09Ps9Dxe++9h7GxMczOzmJ1dRXb29vMQ0ZQKBT40Y9+BD6fv086PJ1Ow+l0Ym9vDzKZDA0NDaiqqmKeGPJMCQSClw55cblcNDQ0QKfToVgsMqI47Y+UUQmAhV6J69fY2IhSqXSi0S4UCtk8Om8IieYfkVLJo3MekA7UBx98gGw2i5aWFojFYrhcLsTjcaysrKCmpoYZBkajken7SCQSOBwO5uGoq6tDQ0MDW6fURrvdDr/fD6PRCL1efyoC7WFQq9W4efMmWze5XA4ejwfhcJil7lcKr3q9XmxtbSEejzMP2Wmy6mifJPkE2kfOsx+Td2t8fByPHz9GMpnErVu32Hlot9uRTCbZ2fEiXvy3ZDIJh8OBf//3f0dXVxf+4R/+AbW1ta/M8/Lie+l7kfHyi1/8AsvLyxgZGcHbb78Ni8Vy4nd50QNzGu/wSb/ZN9spNEDE3eNEa44CdXBsbAyjo6OYn5/HnTt3YDKZkEqlsLi4CL/fD6fTCZvNBj6fzyZb5QZc+THI7ebxeBgpkGLntMGex/V6WhDnw+VyYX5+Hg8fPoRQKMStW7dQU1MDjUYDsVjMMiwaGhpYKjfVHuJwOAgGg/D7/chmszAYDGhqaoJSqWTtz+fzLJ1ZLBbDbDa/8vAR3dj8fj8ePnyI6elptLW1scJiW1tbWF1dRSgUwtraGnp6eo6VkKcY8ejoKFwuF7q7u2G1WtHY2Hgmqe2TQEXPXnweGQ+pVIrF7okMR8XqztoGPp8PhULBNi+bzYZYLAaVSoXBwUFWjZ36TjVk5HI5ampqzjVmFJokkuPs7Cxu3LiBy5cvn4p4TM8oFAooFosvxV8TCoXM00PCbWcBhQsWFhbw8OFD8Hg8vP/++7h69SpisRhcLheCwSDLWKk0YKjgIbA//Za0bbLZLDQaDfNG8Xg88Hi8V150sNIQonYUi0XE43G43W74/X7w+XzU1dUxLhR5q06zF5HGValUAp/PP9fBQ/s1jfNZREKBrwXdcrkc5ubmcP/+fXC5XEaanpiYYBo7tBfo9Xr2vWnfKhaLCIfD8Hq9KJVKbG+j/mSzWUZOpwyhlynqyePx2E0+l8shkUjA4/Egl8vBYDCgvb2decwA7NPJoZD8aQwYuqiR54n6ehZDk9bk1tYWZmZm8Pnnn6O5uRmdnZ0wm82YmJiA3++Hx+OBw+GAVqvdxws77Hk+nw+zs7OYnJxEX18fBgYGWOHN15l9m8/nsbGxgV/96leIxWIYHh7GnTt3YDQaT5WpnMlkmCF4Wk9WOp0+9jf7eksLgqpn0qF6FuXceDyO2dlZpt+g1+tx5coVXL16Fe3t7TAYDBAKhSzU8CITuZJ4RZs6FT/z+/2QSqXQaDT7iLKkW3FeItxJfSoWi9jZ2cHU1BSePn2KRCKB9vZ23LhxAzKZjLWHrGKXy8X6QV4sAIhEImyR19XVwWAwsFgtuVl3dnYQCoUgFArR1NR0Lk2H4/pC6YRPnz7F0tISSqUS3nrrLXR1dTEtFYVCgUgkwjwPR7n6yJ0+PT2NtbU1CAQCDA0NoaOjg20gFI582XGpnBeVRjUVpMzlcswzV5ndRnoiyWTyTO/jcDiM27S2tsYMpLa2NhbSo1tVIBBAIpGAVquFWq0+s2o1hVs3NjYwOTmJra0tqFQqvPnmm+ju7mbeHhKvOu5bZrNZFAqFl8ogpMrrwFcH7Wm9OHThcblcmJqawuPHjxGLxdDa2oqRkRGYzWZYLBamoUNq34ddkCovTxTW9vl8yGazkMvlMJlMzDNIhgWJQ76qjD16N7Ujn88zYuve3h4jbFeGQlKpFCOTHteObDaLeDyOQqEAgUBwbmO/8sJJzzstKGw0OzuLsbExbG9vo7W1FYODg+jp6UFnZydUKhUL3xHnhUAHPGnlBINBVFVVwWAw7DNK0+k0qywsl8uZONnLeMvp3dlsFsFgkCV4NDQ0oL6+fh9HjfhMANiF87TfmsPhME7Nec7DXC6H7e1tjI+PY2JiAsViET09PYzfZTAYIJPJEIvF2Dc+aj1QX+fm5rC6uop8Po+rV6+is7OTGbEktvgqz0G6qNlsNjx79gyrq6swmUz4zne+wyIImUwGgUDg2MxHkoQAsC8ceRxIuBPAoTpJB8w1LpeLqqoqCAQCtnGcdsCohtJ//Md/YG5uDo2NjfjJT36C1tZWyOVylllUV1fHsg0ikQjrMG0YtGmSqmokEmEp0sQ/qJz8RKCNRCKvvI4Pua5GR0fx8ccfY3Z2Fnfv3mUiQXK5HDqdDrW1tQCAzc3NQ4sikheJDJjKMBjxfMiAIaKbwWA4t5v1qL54vV6Mjo7i5z//OXK5HN59911897vfhdFohEajYQZMNBrF+vo6vF7vkSq6hUIBi4uL+NnPfgYej4fu7m60t7ezsBGlFycSiZdWhSRDMp/Ps02kXC4zMmG5XEZNTQ1qamrY7Ypu7iSgdtaDjVj+q6uryGQyqK6uZkRG6r/L5UIkEmF6J3K5/MwHEWlafPTRR3j+/Dnq6urwz//8z2htbWUGCKURUkbIUZscETqJzHgez4RIJGIGDPFxTgN6//Pnz/Hxxx9jYmICb731FvPAisViGI1G5m72er3wer0H+kNjTf9O4TCv14tcLofq6mr2PGrj5uYmUzV9FQYMtaFSDTuTyTA1cbFYzC4YNEblchkejwcLCwsnclrIc1AsFlmyxHm1RciAicViZzI2KUX2P//zP/H8+XMMDQ3h9u3baG1tZdWSqebb+vo6CwEd9pxQKIRIJILa2lrU19fvy0TZ29tjY0dCbq+Cp0QXsu3tbWQyGXbG0LNpDClVGQD0ev2Rqe2H4UUPzGlDH8DXGmBffPEFfve732F7ext//dd/jeHhYSiVSkilUphMJtTV1aFYLLK6WIdFPeiytLCwgHv37iGTyeBHP/oRE+Oj/py0R5wHxGX79a9/jQ8++ADf/e538b3vfQ/9/f3s/PL7/UzG4ijjiRTZK7/pSSAD5qjfHBpCIgOGNq+TDBhykz148AD379/H9vY2rl27hmvXru2Ly4lEIpjNZpaWRXoQlK9fKBSwvLyMe/fuQSQSob+/H/39/dja2kIoFGKkscqQBhlNn332GdMFoY2NPELr6+uIx+NQKpUsq+Q0rrZisQi73c7SI7lcLt5+++192VEA0NjYCIvFgrGxMRaCcblc7KZBnqREIsEMNp1OdyCFlEhZVM5epVLtI236fD4mfETcn9MU2STrfWFhAU+ePMHMzAxMJhPeeOMN9PX1sfGpqqqC0WhES0sL/H4/MpkMtra2mBorgTJJPvjgA+zu7uL69eu4cuUKGhsb93k+XC4X/vu//xstLS3o7+9nejZ+vx8bGxtIpVJM5Ow44bFyuQyn04mpqSmWStjS0oKbN2+y8A0ZMOTOB75azEtLS3j27BneeOMNmM3mMykBJ5NJlo5JImGVKJVKiEQiSKVSEAgEqKmpOTKL4Kh+lUolzM/PY3l5GblcDu+99x46OjrY96A5PDk5CZvNxtbQYf2gw6RYLO472M4K8sBQiu5pDkXivH3++ecYGxtDqVTCO++8g0uXLu1TkabxlkqliEajcDqdcDqdqK+vh1gsRjQaxeeffw6PxwOZTIYbN26Aw+HA5XIhFApBpVKx7LNKI3VlZQXFYpGRe2l9l8tlRkKNRqMwm83Q6XTHEkjp1j45OYmJiQkYDAZcvnwZarUaDocDsVgMVVVVaGxs3JdBSFojz58/h1wuZ3ypw0Be42KxyDwwZ1Wprgxx8Hg8xGKxU6Wm0hqcnp7Ghx9+iGg0ikuXLuHOnTssXEmh+ubmZjQ0NGB3d5cZiS0tLez5lbphZMRXqvaWy1+VOlhZWcHe3h6MRiNMJhM7iGgNLC0tIRAIQCgUorOz89Tcv3Q6Db/fz4oskr4KPZu8qPF4nOncVO4Rp/nGYrEYIpFo3/o6CVTz59GjRxgfH4dSqcTAwABaWlr2fR/iTc3NzcHhcGBtbY0V1aTLR7n8VWboysoKU7qtjGYAYNmk9+7dQyQSwZ/92Z+xrKZsNov5+Xkkk0koFAq0t7cfqqx8GJLJJLa2tnD//n3weDz86Z/+Ka5cucLOP9qfiP8oEAjQ3d29L4RHOMyAOakNqVTqwG8q58WB3Y3P50Or1UIqlbKY1XEDRmm/CwsL+PTTT7G2tgadToeenh50dHTsc6cLBAI0NzfDYDBgdnaW3cCIX+ByuTA9PY1Hjx6xjaqzsxNbW1vMRSiXy1nHaXNyuVzY29tj8fDKtu3s7OCTTz5BJBJBfX09SqXSAeXbF0GLanl5Gc+ePcOXX36JTCaD/v5+JiNfmRZMqrx1dXWMq7O9vQ2lUnkga+SwAaNQzOrqKsLhMNNiqCQyl8tfqZDOzMxgd3cXZrMZV65cweXLl49d6JQlY7PZ8PjxYywtLSGVSuHGjRtsodA3EwgE7HZrt9uxsbHBQlpELiOi8cTEBB4/fox0Og2pVIrd3V1ks1nm1idVzhdVIckd/cknn7BU5WKxiNbW1iMzbCjuOzk5iYWFBdTU1EAkErFDjVyM5IEBwMJ+09PT577hkifwMP5NJpOB3+/H2toa/H4/k/E/iwFDoo3Pnj3D0tIS64Pb7UYikYBYLGYCYI8ePQIAdHZ2Ajh6HpFAJLH3z+OmVygUjCdQKBSOvXHSWiFRw88//5ylHr/55ptobGzcZ/gplUoWYnC5XAgEAtja2oJSqWRG75MnT5hR09PTg3Q6jd3dXZb5UkmQpdCSw+FAXV3dgcOzUCgwReVYLIaOjg5cuXIFPT09R45ToVDA0tISnj59isnJSXR3d6OxsRHlchkOhwPxeJytEyIY5nI5pjQsEolO5F5RCIlIsKchaR8GDoeD6upqyOVybG9vM02Yo/YE4hJNT09jdHQUU1NTuHv3Lq5duwaz2cwMZy6XC6lUyrKM3G43XC7XAcVx8tKTaB0ZzdR3SthYXV1lmZVNTU1sP6CxHR0dZSVjuFwuurq6jlUCJ5CoHV2CyfCmkOvW1hbz8tEF5yitlaOgUqlYIkY+nz/WoKc1uLS0hCdPnmBsbAzAV+v26tWr0Gq1+7wIDQ0NMJvN0Gq1iEQi7DtrNBrmRIhEIhgfH8fU1BQLuYrFYiYWShpZJBJL/CIOh8OKKD969AjBYBBarRYikQjNzc3Hfge6UG9sbODp06cYGxtjUgGks0NOh2AwiM3NzRNJzqlUCqlUis3Z0xhRVF+PUvNf/M2hBgzl6AcCAaRSqWMHLBqNYm5uDv/2b/+GYDAIvV6PW7duoa+vj4VVXnw2eVHIo+B2u6FUKrG+vo7FxUV20yLrbnd3F3t7e+Dz+SyMQItmZmYGXq+X5chXTvpUKgWHw4F79+4hlUqhoaEB+XweSqXy2HoWFBt+8OABHj9+jFAohKGhIVy+fBmXLl06cJip1WqYzWZ0dXVhfn4e8XiclTyg2xANAOXJB4NBlnKYzWZht9vxxRdfIBAIQCqV7uNy0EY8Pj6OTz/9FMlkEisrKxCLxRgaGjo0K6iyL3a7Hf/v//0/zM3Ngc/no7e3Fzdv3oTJZNq3adIEpAwMcmmGQiEWq08mk7Db7fjggw8QCARQLn8lxLaysgKFQgGZTMY2j1wuh4aGBvT29sJsNgMA0wD5+OOPWUiLw+EwPtBhIDKt3+9n4lgCgQArKytIJpOMtFtdXQ2JRMI0UEhs6a/+6q/Q3t5+5no+fD4fVVVVqK6uZoXKMpkMG7/l5WVMTExgd3eXedROuzkS8fHJkyeYmprC1tYWRCIRQqEQ5HI55HI5NBoNC8Otrq7izp07uHTp0qE3F7ptptNpVjH3vBIIKpWKpc/n8/lji1PSWvnss8/w8OFDBAIBtlYGBgYOrBWRSAS1Wo3W1lZEo1GkUim2VrLZLJxOJzY2NuDz+SCRSJDP51ml5UpeDhH7PB4P1tbWEAwGcenSJXR1dTGjjQyLx48f4/nz56xEAdX/Osy4o7U2NzeHlZUVpNNpcLlcliFC2jA6nY7p/aTTaYTDYXz55ZcQCAR45513WFXno0D1dQqFAuRyOWpra881VpTpqNVqsbCwwDKSDjOGKIz99OlT3Lt3D5ubm1CpVHj33XcxPDy8L9xIe4pOp0NjYyNmZmYQCATgdrv3KY5zOF/V4CKBNyJd0pxZW1vD7Ows7HY7uFwu1Gr1vgsNeRdJYZbH48FgMDAy/El9p3R0mqvxeBzZbBYCgQBerxdffPEFnE4nhEIhzGYzlErlmauqa7Vatm+TFslRID7Qhx9+iImJCRQKBbz99tu4fv062tvbD8y5mpoaWCwWdHR0YG5uDpFIBE6nE11dXYwbt7q6iqdPn2JhYQF8Ph/37t3D8+fPWU0lCvH4/X4MDg7i+vXrbG93OBwYHR3Fl19+CY/HA61Wy87J4/Yq8i7Pzs7i0aNHLEuNqtRT6JQyFjUaDUZGRlitqMOQTCaZAaPVao91Irz4Gy6Xi9ra2gMezQOzXCAQsBhmqVSC2+1GW1vbkZ3c2dnB+Pg4EokEmpubce3aNdy6detQLQwKUWm1WhiNRoTDYbYoOjo6mEgYn8/Hu+++i9raWjx79gxVVVVob29HKpVipEq3243V1VVsbGygpaUF7733HjQazb53CgQCSCQSiEQiZDIZ8Pl8yOXyE3kB0WgUMzMzsNlsKBQK6Ovrw/e//3309PQc6ualooidnZ3Y3NxEIpFgtYHoZsDlcmG1Wpkegsvlwvj4OHg8HlwuF9bX1+H3+5HP56HT6Q6IEXE4HHawpVIpyOXyU932g8EgbDYbM16Gh4dx9+5d6PX6Q/VdOBwOM2AKhQJTzyRu0uLiIpaXl9HY2Ih33nkH1dXVTCl2c3OTlYbXarVob29nXCHaUMViMSNjkVgieZqOAofDgUKhYAJOer0eAoEAY2NjaG5uxsjICB48eID19XWUy2UIBALMzs4iEonAaDTCaDSei5uiUqnQ0dGB27dv48mTJ3A4HLh//z6qq6vZ+Hm9Xua1NJvNp9a2IJL0o0eP0NHRgffffx/V1dVYW1vD4uIi5ubmWGhBoVDg8uXLGBoagtFoPPRwooPX7/ejVCoxJc7zEkPlcjksFgsymQwL8x5mKCcSCVZkMp/Po6enB9/73vcONfSBr4uhUm0kEhijcGJTUxPq6+uZQBldaEQiEb7//e9jcXERKysr+Pjjj9kNOxKJ4Dvf+Q46OzsP9JnL5UKlUkEulyORSEAulx+rwEpG/MDAADweDyKRCLtscblcvPnmm0xZ+9GjR8xwnJiYwPz8PG7evInu7m5IpdIjDRLibni9XkZsJWPoLKCLEelFZbNZhEIhJsPwIogoTlIJ169fx/vvv4/29vYjvT8kEDo+Ps4UX202GzuoBAIB9Ho9ent7EQqFmMoyaRBNTU3BZrPtG4fKftKeXJnxdVp+BPCVAXD16lVWk25hYQFqtRqFQgE2mw0PHz6E3+9ndZdOGzqpBGXKGo1GRhY/zMtFnLzJyUnY7XYIBAL09vbi1q1bR6YZ0/i1tbVhfX0d0WiUiYhWVVUhEAjg0aNHaGpqwvXr12E2mzEzM8PqwdntdiaKaLFY0Nvbi5aWFmZcvvh9ybN23PelC+PY2Bh8Ph/6+vpw/fp1lo1GFy4yUltaWmCxWHD16tUjM1YpbBkIBMDlcqHRaE5VSDMYDCISiRz5G95Pf/rTnx42YBsbG3C5XOByuYxodNitLxqNIhaLgc/nY3BwEFevXoXFYjkyvkX/xuPxWDlwHo+HoaEhdtALBAIW5weApqYmNDc3M2Z7Op1mm6per0dPTw+6uroOvJO8F6Tr0NnZicHBQTQ0NBy7iZGHJxwOQ6fT4a233sKlS5cOGEgv9quqqordKtPpNNrb26FSqZihQOmp5OInvQ4ul4t4PM4IvJ2dnbh27dqBUgvl8lfKnxqNBleuXEFfXx8bl6P6ksvl4Pf72US8evUqent7D2wkL44/FTAkj5VarYZCoWCx6uHhYfT19aG5uZkdlqQmazKZ0NPTg8HBQXR3d+8jXZPbWSAQoLGxEZcuXUJvb++JwlKUbkpZW6QHRO59Mlaz2SwSiQSrijs0NMSUgM+6cdFcJIl2CocKBAKWBru7uwu5XI6uri5W9uI0N2mn04n19XXs7e3hypUrGB4eRmNj4z4DW6vVMkG3gYEBtLW1HTkHSQzriy++gEwmYxV5z0uWTCaTLMQjk8mY8f7iu0njIxwOo6amBm+99Rb6+/sZmfooiEQixGIxljVBdapkMhlyuRw7lCk019LSAqvVinK5zNZNLpdDVVUVTCYTLl++jLq6uiO9UyqVCnV1dbhy5Qq6u7uPre5OXgVKw5fJZJDJZKirq4PVamXhXeoHeRubmpowODjIRL+O43Strq7iyZMn4HK5GBgYQH9//z712NOCw+GwTLvp6WkYDIYjU3Hppk6y9VRH6rg5WylTQaELKphLN3hKq5bJZIwATnt0JBJhZ0RTUxMGBgb2VSKn8STODYX4aI8+CRQ2AgCZTAahUMiqNieTSWxubjIPwRtvvIHm5uZzXWZCoRA8Hg+8Xi/q6+uPHONkMsm0vMxmM27evImurq4j30nfQSAQIBqNsiKfJpMJ2WwWgUAAgUAAPT09GBgYYAkxxFOVSqVsj+jr60NbW9sBY5jCOkajEd3d3RgeHj4QyqoE0UJmZ2chlUoxNDSEvr4+Ri2h711dXY3e3l709/ejp6cHJpPp0EtTsVhEJpPBJ598AofDAaVSiZGRkX1cqBdBoenPP/8cm5ubqK6uxsjIyD6OE3CIB4Y+JrlINzc3mYT3YTf2+vp6Fj81mUysE0eBw+EwSf1sNovZ2VkkEglGwhwaGkJdXR12d3fB4/HQ2dnJ8swTiQRWVlawvr6OQqHAJL6Pki8WiURoamrCD3/4Q6ZWSCJjx01gmUyGrq4u5HI58Hg89PX1nUj8lclk6OzsRCgUglgsZlY0VTBNJpPMC3T37l14PB4WotPr9YjH48jn80x8Ta/X77uV8Hg8XLlyBa2trdjd3YXJZDpWn4VA0vuZTAbt7e0wGo3HEn/J29Hd3Q0AmJycBJf7VbVnyvyor6/H9evXmdAYpZG3t7fD4/FAp9Ohvr5+HyGQUFVVBavVivr6ekasPkm5lsTl+vv7oVKpmAjirVu3oNVqUS6XoVQq2Y05k8mgpaWFzcezkiMp/ptIJJBOp1FTU4ORkRGEQiG43W6WLs3lcjE3N8e8L2cxFmgujIyMoKurCzqdDgBgtVqZm7dYLKKuro4ZaMfN21AohOXlZSSTSZhMJrZmzmO8cLlcyGQymM1mlolGBsqLRq9EIkFXVxfL1BkYGDhxrUilUnR0dCASiUAkEsHhcGBvbw/ZbBa1tbV488034Xa7EY1GUVVVBbPZzEIsVVVV2N3dRSwWY6U4TCbToV482sso3TMYDDJOznHfhcvlQqfT4erVq6ivr8fq6irq6+vR0dHBygZQ+JtCii0tLYxbd5InJZ1OIxQKIRAIsDUpl8vPreGhVCpRV1eHmpoaVoCxr6/vQB8pCeLOnTtMq+okw14kEsFoNOK73/0utFotwuEw40QWCgWmGC2RSDAwMACLxcIK9VFYVyqVQiAQoKmpaV/mJfDV/KFDOZlMsrPnNKVHKHyRSqVgtVphMpmYoUE8KZVKhb29PSgUin2k67OAOIlU7Zl4m4d5zSQSCVP8rqurQ1dX14me0OrqalitVqZkLpFIWL0nAMwopm/X1taGmpoadHZ2wuv1wmAwwGKxMEOlch6RkaFWq9n5Qok1R4FCtFKpFM3Nzbhy5Qp4PB6kUimUSiUsFgvm5+dRKpXQ29sLhUJxbFo8Zbu5XC7k83lGLznOQKWLkdfrRblcRmdn56G/OdSAoThkU1MTFhYWWKroi1Y9DaxMJmPErNOqnep0OvzgBz/AO++8w8SYADAeA9VcIHVNDofDmNyUzULS5MdtGEKhEFqtlpEST8OD4PF4EIlEbBM4zUFAzx0eHkZPTw+LbYtEIuZudjqdkEqlePfdycRDlwAACh5JREFUd2E2m9HS0oJisciMGa/Xy/QXDmPhV7phD6vke1Rfmpqa2O30NGm1FPtWKpUYHBwEl/tVwUeJRILr16+jWCzuuy2S0dPW1sbCRUcJzwFfhZFIwfRF4vVREIlE0Gg0zCArl8v7Di2xWAyDwcCEpmjenNV4Ab7ywPl8Pjx+/Birq6uQy+W4c+cOrFYrI9EuLCyw9GqdTse8Hac9hDo6OmA2mxnxkUCxXooPUz+Aw4m7wNeZHuvr60w/qKWl5Uyx/kpUrrXx8XHEYjGsrq5CKpUeuMSQV6a3t5etydOuFVJrzufzkMlkjHSs0+mg0Wj2CfLROFssFqZ2Sx6SkwT7KMRHHp3TjBGFuqurq1mIhci55I2sLFBKe9hpam1RVlShUEBHRweMRuO55imBirH29/fD5/PB5/MxHkzlM6lPIyMj+/bV0zy/oaGBjQmfz2eXso2NDXzyySfg8/loa2vDjRs30NzczLhTP//5zxmvz2q1wmg07vv+dN7QhZn2/OPaRd4gKuq5srKCgYEBWK1W9Pf3o7e3F4FAANPT03C5XKiqqoLFYkFra+u5yrKQd6i7uxtPnz5lyrkvynlQmJ8uT6f9xmQcfOc732EZhLTOKKW6cl3ROUCXDOIgURtebDvxGomPedIZTfWPKBOK+kjnAHmzALBz4Lg+JhIJzMzMIBKJQKPRYGhoCCqV6ti1QskewWAQCoUC/f39B743cIgBQzAYDLBarXj27Bl8Ph82NjYOzZ+nA+gw78xRoI94GInnuAONRPbOUhiQ3nVWhj/paJwFHA6HuZsJlMZHmRV1dXXo7u5GW1sbc5fb7XZGZB4cHITZbD70IDhPX8gAO+thRiGhF4leRxG/TmuIADhwSzgNKvt+mFDcefp4GEjrwWazsc1RpVLh6tWrbLG63W6WWaHRaNDS0sK8JKdFpVhcJc46xsSncLvd2NnZYeHWl7nRU/sMBgNaWlrgdDqxsLDAeA+HcdvOKt7H4XAglUoPPVCOq79E9dnO+q7zrJuj5hv9+2mLARLILU51u0wmE/O+ndd4Ab7mUQwMDOC3v/0tnE4nNjc3YTQaD237WbWlyIisXF9EwJ+cnGSkTrVazWQ4SMDN5XKBx+Oht7cXFovlSGLuWed8sVjE0tISRkdH4XQ6odfrmX5NsVhEIBDA2toaq4PW2dl5ItfuOFBGVltbG5LJJFZXV2G1Wg94Xc9zHgJfez1PAzL6TtsX8kSepS1HrTNaF6dtK8mHUNIJqRCflAFFSRgSiQQGgwFdXV2H7hVH7nAqlQpmsxltbW0IhUJYXFxELBY7V3XbbzNIg4Xc3hQPTKfTiEaj2NzcxPLyMtLpNHp7e1lq88tsaBd4ORBXgMJRJF5HapMLCwuw2+0olUro6+uD1Wo9lh/1OlEul+FyuZh71mq17ktTPS+onEJHRweUSiXW1taws7ODRCLxilr+7UOhUGACkZlMho3VeYsaEsgD2tXVherqakSjUSwtLSGZTL4yMbMXQbo3TqeTqamT5lUoFMLKygq++OILJBIJNDY24saNG6x+1atAqVTa58mqLKfgcrmwvLyMjY0N1NXVobe3l2UhnhcCgQAajQZWqxVCoRA2m42VMLnA0YjH43C5XLDZbFCpVEy/5jgDj0QrFxcXoVKp0NbWtk/zphJHjiiFh4aHhxGLxTA+Po7l5eWLDewcoPLxw8PDuHnzJjo7O5l404cffoiNjQ0YDAb84Ac/gNlsPrPn5wKvDuSxouKRbW1t+PGPf4z29naEQiGMjY3h/v37CIfDGBkZwV/+5V/i0qVL56q59LKgm+j09DR2dnaYNpDRaHzpZ9Mtr729HfX19fB4PBgbG4PD4XgFLf92grI4RkdHEQ6HcenSJVYL7WVBHrO+vj7I5XJMTk7u46u8alSmMBMfo7u7G1wuFxMTE/jVr36FDz74ADU1Nbh79y5GRkZeqZFPYRbSHBscHIRarcb29jYePHiA8fFx5HI5vP/++7h58/+3dz4tqURhGH8UTKkQosFNBFMwIKlpMLUQvBq07gME9S36Di77ArUJWrRs2R8KWtSifxo4ipTazCIoKkXGSme6i+577kSlU3fM6M4PpJUcOzPnzDvveZ/n/QWe5z9so2CEjnqpiFuWZezu7kJRFEv+n59KPp/H3t4e84cTBKHlke/l5SVSqRS2t7fR19fHREFvfedNFRJBaa2HhweoqgpZlllthNXN034yZG50fX0NSZJwdHTETImo+G18fPxFF26bzkGb883NDWtKeHh4iFQqBUVR4PP5EIlEMDExwd4qO5Exu729xenpKTY2NtDT04Pp6WkMDw9b+nvofN3lcrHieY7jmPeOjTk0TWOOpk6nkykCqSP1v0KSao/HA1VV2fFmb2/vq+aYVkDHEh6PB/l8HoqiIJvNIp1Oo1gsoqurC6IoIhaLIRAItKx5+ChOp5NJ/FOpFAqFAtLpNHK5HKrVKpMdkyikmerULBQ0kSorm83C6/XC5/N1bA/4rlDfsJ2dHUiSBJ7nEY/HWauZt6AXsv39fUiSBI7jkEgkIAjCu5m7pgEM+UG4XC5omobz83PmhGm00rdpDtXu1Ot1Jrl0uVzgOA5+vx9jY2MYGhpCd3d3R44hbF5CDwKqWbi7uwPw/Jbb39+PcDiMYDAInuct6enyGajIbXNzE4+PjxgdHUUikbD8HiJ5utfrhaIoKJfLqNVqTElo7wGteXp6QrFYxMnJCdLpNCKRCERRBM/zlmbuqIjU4XCgUqmgXC4z64XPSLRb4Xa7mS8VSaKpUNjv9yMajUIQBFYbYxWkYqI6QVIvUX3P4OAgwuEwO4636j6lManZsSzLqNVq0HWdZXhsnqlWqzg+PkYmk4HT6cTk5CRCodC79gVUy5fNZnFwcID7+3vEYjGEQqGmsYbjycQhab1eR6FQwPr6OmRZRjAYxMzMzD+l5P5HqI8GKQ4oTW/P4feEAhhqjEZvud/hmhWLRWxtbWF5eRnz8/OIRqOmrNc/A3mu5HI5rK2tIZPJIJlMvlKU2LyG7qGVlRXW1mJubg5+v79tGSxyeV5YWIDb7UY8Hocoip9S4JjBuEaAv0X6X3FvaJqGRqPB1iOt0XY+m6j7eS6Xw+rqKhqNBpLJpJ2F+QPV5S0tLcHtdiMYDGJqaqrp0ZGu6yiVSlhcXISqqggEApidnW3amgAwGcBQVfDV1RVUVWVRrn2xPgZJ4ow+CPYcfm9IskkYr10nUVWVeSsIgsAkwu2A5oDcYyuVCkZGRuwN2yS0oVNDQWqy1665oxYKZ2dncDieWw1YVWvz3njGv1+5t721Pts9Nrlek/pP1/UXLSxsnr2OLi4u2CkOZV6aWUHUajWUSiXoug6v14uBgYGW+62pAIYGoA9FuTY2Np3BuB6/KhPaiTF/CrquA/i6AJgyP8ZrZV8vazEGT/bz8CXGWAEwF1Aa59Ps/fob7Rl/R9doy7YAAAAASUVORK5CYII=;" vertex="1" parent="1">
          <mxGeometry x="50.53" y="280" width="260.47" height="20" as="geometry" />
        </mxCell>
        <mxCell id="1XECBDvFI1evGuoP0mXp-2" value="ap" style="text;html=1;strokeColor=none;fillColor=none;align=center;verticalAlign=middle;whiteSpace=wrap;rounded=0;" vertex="1" parent="1">
          <mxGeometry x="165" y="749" width="60" height="30" as="geometry" />
        </mxCell>
        <mxCell id="1XECBDvFI1evGuoP0mXp-4" value="x" style="text;html=1;strokeColor=none;fillColor=none;align=center;verticalAlign=middle;whiteSpace=wrap;rounded=0;" vertex="1" parent="1">
          <mxGeometry x="125.47000000000003" y="809" width="60" height="30" as="geometry" />
        </mxCell>
        <mxCell id="1XECBDvFI1evGuoP0mXp-5" style="edgeStyle=orthogonalEdgeStyle;rounded=0;orthogonalLoop=1;jettySize=auto;html=1;exitX=0.5;exitY=1;exitDx=0;exitDy=0;" edge="1" parent="1" source="1XECBDvFI1evGuoP0mXp-4" target="1XECBDvFI1evGuoP0mXp-4">
          <mxGeometry relative="1" as="geometry" />
        </mxCell>
        <mxCell id="1XECBDvFI1evGuoP0mXp-6" value="y" style="text;html=1;strokeColor=none;fillColor=none;align=center;verticalAlign=middle;whiteSpace=wrap;rounded=0;" vertex="1" parent="1">
          <mxGeometry x="300" y="900" width="60" height="30" as="geometry" />
        </mxCell>
        <mxCell id="1XECBDvFI1evGuoP0mXp-7" value="" style="endArrow=none;html=1;rounded=0;exitX=0.75;exitY=0;exitDx=0;exitDy=0;entryX=0.25;entryY=1;entryDx=0;entryDy=0;" edge="1" parent="1" source="1XECBDvFI1evGuoP0mXp-4" target="1XECBDvFI1evGuoP0mXp-2">
          <mxGeometry width="50" height="50" relative="1" as="geometry">
            <mxPoint x="145" y="819" as="sourcePoint" />
            <mxPoint x="195" y="769" as="targetPoint" />
          </mxGeometry>
        </mxCell>
        <mxCell id="1XECBDvFI1evGuoP0mXp-8" value="" style="endArrow=none;html=1;rounded=0;entryX=0.75;entryY=1;entryDx=0;entryDy=0;exitX=0.25;exitY=0;exitDx=0;exitDy=0;" edge="1" parent="1" target="1XECBDvFI1evGuoP0mXp-2">
          <mxGeometry width="50" height="50" relative="1" as="geometry">
            <mxPoint x="315" y="910" as="sourcePoint" />
            <mxPoint x="155" y="979" as="targetPoint" />
          </mxGeometry>
        </mxCell>
        <mxCell id="1XECBDvFI1evGuoP0mXp-9" value="z" style="text;html=1;strokeColor=none;fillColor=none;align=center;verticalAlign=middle;whiteSpace=wrap;rounded=0;" vertex="1" parent="1">
          <mxGeometry x="315" y="809" width="60" height="30" as="geometry" />
        </mxCell>
        <mxCell id="1XECBDvFI1evGuoP0mXp-10" value="ap" style="text;html=1;strokeColor=none;fillColor=none;align=center;verticalAlign=middle;whiteSpace=wrap;rounded=0;" vertex="1" parent="1">
          <mxGeometry x="225" y="659" width="60" height="30" as="geometry" />
        </mxCell>
        <mxCell id="1XECBDvFI1evGuoP0mXp-11" value="" style="endArrow=none;html=1;rounded=0;entryX=0.25;entryY=1;entryDx=0;entryDy=0;exitX=0.75;exitY=0;exitDx=0;exitDy=0;" edge="1" parent="1" source="1XECBDvFI1evGuoP0mXp-2" target="1XECBDvFI1evGuoP0mXp-10">
          <mxGeometry width="50" height="50" relative="1" as="geometry">
            <mxPoint x="185" y="789" as="sourcePoint" />
            <mxPoint x="235" y="739" as="targetPoint" />
          </mxGeometry>
        </mxCell>
        <mxCell id="1XECBDvFI1evGuoP0mXp-12" value="" style="endArrow=none;html=1;rounded=0;entryX=0.5;entryY=1;entryDx=0;entryDy=0;exitX=0.126;exitY=-0.089;exitDx=0;exitDy=0;exitPerimeter=0;" edge="1" parent="1" source="1XECBDvFI1evGuoP0mXp-9" target="1XECBDvFI1evGuoP0mXp-10">
          <mxGeometry width="50" height="50" relative="1" as="geometry">
            <mxPoint x="305" y="769" as="sourcePoint" />
            <mxPoint x="355" y="719" as="targetPoint" />
          </mxGeometry>
        </mxCell>
        <mxCell id="1XECBDvFI1evGuoP0mXp-13" value="$$\lambda z$$" style="text;html=1;strokeColor=none;fillColor=none;align=center;verticalAlign=middle;whiteSpace=wrap;rounded=0;" vertex="1" parent="1">
          <mxGeometry x="225" y="570" width="60" height="30" as="geometry" />
        </mxCell>
        <mxCell id="1XECBDvFI1evGuoP0mXp-14" value="" style="endArrow=none;html=1;rounded=0;entryX=0.5;entryY=1;entryDx=0;entryDy=0;exitX=0.5;exitY=0;exitDx=0;exitDy=0;" edge="1" parent="1" source="1XECBDvFI1evGuoP0mXp-10" target="1XECBDvFI1evGuoP0mXp-13">
          <mxGeometry width="50" height="50" relative="1" as="geometry">
            <mxPoint x="180" y="650" as="sourcePoint" />
            <mxPoint x="230" y="600" as="targetPoint" />
          </mxGeometry>
        </mxCell>
        <mxCell id="1XECBDvFI1evGuoP0mXp-17" value="" style="curved=1;endArrow=classic;html=1;rounded=0;dashed=1;strokeColor=#000000;exitX=0.75;exitY=0;exitDx=0;exitDy=0;entryX=1;entryY=0.75;entryDx=0;entryDy=0;" edge="1" parent="1" source="1XECBDvFI1evGuoP0mXp-9" target="1XECBDvFI1evGuoP0mXp-13">
          <mxGeometry width="50" height="50" relative="1" as="geometry">
            <mxPoint x="480" y="930" as="sourcePoint" />
            <mxPoint x="530" y="880" as="targetPoint" />
            <Array as="points">
              <mxPoint x="370" y="730" />
              <mxPoint x="350" y="670" />
            </Array>
          </mxGeometry>
        </mxCell>
        <mxCell id="1XECBDvFI1evGuoP0mXp-23" style="edgeStyle=orthogonalEdgeStyle;rounded=0;orthogonalLoop=1;jettySize=auto;html=1;exitX=0.5;exitY=1;exitDx=0;exitDy=0;dashed=1;strokeColor=#000000;" edge="1" parent="1" source="1XECBDvFI1evGuoP0mXp-18">
          <mxGeometry relative="1" as="geometry">
            <mxPoint x="255" y="518" as="targetPoint" />
          </mxGeometry>
        </mxCell>
        <mxCell id="1XECBDvFI1evGuoP0mXp-18" value="$$\lambda y$$" style="text;html=1;strokeColor=none;fillColor=none;align=center;verticalAlign=middle;whiteSpace=wrap;rounded=0;" vertex="1" parent="1">
          <mxGeometry x="225" y="488" width="60" height="30" as="geometry" />
        </mxCell>
        <mxCell id="1XECBDvFI1evGuoP0mXp-19" value="" style="endArrow=none;html=1;rounded=0;entryX=0.5;entryY=1;entryDx=0;entryDy=0;exitX=0.5;exitY=0;exitDx=0;exitDy=0;" edge="1" parent="1" target="1XECBDvFI1evGuoP0mXp-18">
          <mxGeometry width="50" height="50" relative="1" as="geometry">
            <mxPoint x="255" y="577" as="sourcePoint" />
            <mxPoint x="230" y="518" as="targetPoint" />
          </mxGeometry>
        </mxCell>
        <mxCell id="1XECBDvFI1evGuoP0mXp-20" value="" style="curved=1;endArrow=classic;html=1;rounded=0;dashed=1;strokeColor=#000000;exitX=0.75;exitY=0;exitDx=0;exitDy=0;entryX=1;entryY=0.75;entryDx=0;entryDy=0;" edge="1" parent="1" target="1XECBDvFI1evGuoP0mXp-18">
          <mxGeometry width="50" height="50" relative="1" as="geometry">
            <mxPoint x="345" y="910" as="sourcePoint" />
            <mxPoint x="430" y="840" as="targetPoint" />
            <Array as="points">
              <mxPoint x="430" y="890" />
              <mxPoint x="430" y="740" />
            </Array>
          </mxGeometry>
        </mxCell>
        <mxCell id="1XECBDvFI1evGuoP0mXp-21" value="$$\lambda x$$" style="text;html=1;strokeColor=none;fillColor=none;align=center;verticalAlign=middle;whiteSpace=wrap;rounded=0;" vertex="1" parent="1">
          <mxGeometry x="225" y="430" width="60" height="30" as="geometry" />
        </mxCell>
        <mxCell id="1XECBDvFI1evGuoP0mXp-22" value="" style="endArrow=none;html=1;rounded=0;entryX=0.5;entryY=1;entryDx=0;entryDy=0;exitX=0.5;exitY=0;exitDx=0;exitDy=0;" edge="1" parent="1" target="1XECBDvFI1evGuoP0mXp-21">
          <mxGeometry width="50" height="50" relative="1" as="geometry">
            <mxPoint x="256" y="494" as="sourcePoint" />
            <mxPoint x="231" y="435" as="targetPoint" />
          </mxGeometry>
        </mxCell>
        <mxCell id="1XECBDvFI1evGuoP0mXp-24" value="" style="curved=1;endArrow=classic;html=1;rounded=0;dashed=1;strokeColor=#000000;exitX=0.25;exitY=0;exitDx=0;exitDy=0;entryX=0.25;entryY=1;entryDx=0;entryDy=0;" edge="1" parent="1" source="1XECBDvFI1evGuoP0mXp-4" target="1XECBDvFI1evGuoP0mXp-21">
          <mxGeometry width="50" height="50" relative="1" as="geometry">
            <mxPoint x="30" y="740" as="sourcePoint" />
            <mxPoint x="80" y="690" as="targetPoint" />
            <Array as="points">
              <mxPoint x="130" y="740" />
              <mxPoint x="130" y="670" />
            </Array>
          </mxGeometry>
        </mxCell>
        <mxCell id="1XECBDvFI1evGuoP0mXp-25" value="$$\lambda x$$" style="text;html=1;strokeColor=none;fillColor=none;align=center;verticalAlign=middle;whiteSpace=wrap;rounded=0;" vertex="1" parent="1">
          <mxGeometry x="311" y="430" width="60" height="30" as="geometry" />
        </mxCell>
        <mxCell id="1XECBDvFI1evGuoP0mXp-26" value="" style="endArrow=none;html=1;rounded=0;strokeColor=#000000;entryX=0.5;entryY=1;entryDx=0;entryDy=0;" edge="1" parent="1" target="1XECBDvFI1evGuoP0mXp-25">
          <mxGeometry width="50" height="50" relative="1" as="geometry">
            <mxPoint x="341" y="490" as="sourcePoint" />
            <mxPoint x="361" y="490" as="targetPoint" />
          </mxGeometry>
        </mxCell>
        <mxCell id="1XECBDvFI1evGuoP0mXp-27" value="x" style="text;html=1;strokeColor=none;fillColor=none;align=center;verticalAlign=middle;whiteSpace=wrap;rounded=0;" vertex="1" parent="1">
          <mxGeometry x="311" y="490" width="60" height="30" as="geometry" />
        </mxCell>
        <mxCell id="1XECBDvFI1evGuoP0mXp-28" value="" style="curved=1;endArrow=classic;html=1;rounded=0;strokeColor=#000000;dashed=1;exitX=0.75;exitY=0;exitDx=0;exitDy=0;entryX=0.75;entryY=1;entryDx=0;entryDy=0;" edge="1" parent="1" source="1XECBDvFI1evGuoP0mXp-27" target="1XECBDvFI1evGuoP0mXp-25">
          <mxGeometry width="50" height="50" relative="1" as="geometry">
            <mxPoint x="401" y="510" as="sourcePoint" />
            <mxPoint x="451" y="460" as="targetPoint" />
            <Array as="points">
              <mxPoint x="371" y="490" />
              <mxPoint x="371" y="470" />
            </Array>
          </mxGeometry>
        </mxCell>
        <mxCell id="1XECBDvFI1evGuoP0mXp-29" value="ap" style="text;html=1;strokeColor=none;fillColor=none;align=center;verticalAlign=middle;whiteSpace=wrap;rounded=0;" vertex="1" parent="1">
          <mxGeometry x="273.44" y="342.67" width="60" height="30" as="geometry" />
        </mxCell>
        <mxCell id="1XECBDvFI1evGuoP0mXp-30" value="" style="endArrow=none;html=1;rounded=0;entryX=0.25;entryY=1;entryDx=0;entryDy=0;exitX=0.75;exitY=0;exitDx=0;exitDy=0;" edge="1" parent="1" target="1XECBDvFI1evGuoP0mXp-29">
          <mxGeometry width="50" height="50" relative="1" as="geometry">
            <mxPoint x="258.44" y="432.67" as="sourcePoint" />
            <mxPoint x="283.44" y="422.67" as="targetPoint" />
          </mxGeometry>
        </mxCell>
        <mxCell id="1XECBDvFI1evGuoP0mXp-31" value="" style="endArrow=none;html=1;rounded=0;entryX=0.5;entryY=1;entryDx=0;entryDy=0;exitX=0.25;exitY=0;exitDx=0;exitDy=0;" edge="1" parent="1" target="1XECBDvFI1evGuoP0mXp-29" source="1XECBDvFI1evGuoP0mXp-25">
          <mxGeometry width="50" height="50" relative="1" as="geometry">
            <mxPoint x="370.99999999999994" y="489.99999999999994" as="sourcePoint" />
            <mxPoint x="403.44" y="402.67" as="targetPoint" />
          </mxGeometry>
        </mxCell>
        <mxCell id="1XECBDvFI1evGuoP0mXp-32" value="$$\lambda z$$" style="text;html=1;strokeColor=none;fillColor=none;align=center;verticalAlign=middle;whiteSpace=wrap;rounded=0;" vertex="1" parent="1">
          <mxGeometry x="530" y="512.67" width="60" height="30" as="geometry" />
        </mxCell>
        <mxCell id="1XECBDvFI1evGuoP0mXp-33" value="" style="endArrow=none;html=1;rounded=0;strokeColor=#000000;entryX=0.5;entryY=1;entryDx=0;entryDy=0;" edge="1" parent="1" target="1XECBDvFI1evGuoP0mXp-32">
          <mxGeometry width="50" height="50" relative="1" as="geometry">
            <mxPoint x="560" y="572.67" as="sourcePoint" />
            <mxPoint x="580" y="572.67" as="targetPoint" />
          </mxGeometry>
        </mxCell>
        <mxCell id="1XECBDvFI1evGuoP0mXp-34" value="z" style="text;html=1;strokeColor=none;fillColor=none;align=center;verticalAlign=middle;whiteSpace=wrap;rounded=0;" vertex="1" parent="1">
          <mxGeometry x="530" y="572.67" width="60" height="30" as="geometry" />
        </mxCell>
        <mxCell id="1XECBDvFI1evGuoP0mXp-35" value="" style="curved=1;endArrow=classic;html=1;rounded=0;strokeColor=#000000;dashed=1;exitX=0.75;exitY=0;exitDx=0;exitDy=0;entryX=0.75;entryY=1;entryDx=0;entryDy=0;" edge="1" parent="1" source="1XECBDvFI1evGuoP0mXp-34" target="1XECBDvFI1evGuoP0mXp-32">
          <mxGeometry width="50" height="50" relative="1" as="geometry">
            <mxPoint x="620" y="592.67" as="sourcePoint" />
            <mxPoint x="670" y="542.67" as="targetPoint" />
            <Array as="points">
              <mxPoint x="590" y="572.67" />
              <mxPoint x="590" y="552.67" />
            </Array>
          </mxGeometry>
        </mxCell>
        <mxCell id="1XECBDvFI1evGuoP0mXp-36" value="y" style="text;html=1;strokeColor=none;fillColor=none;align=center;verticalAlign=middle;whiteSpace=wrap;rounded=0;" vertex="1" parent="1">
          <mxGeometry x="430" y="512.67" width="60" height="30" as="geometry" />
        </mxCell>
        <mxCell id="1XECBDvFI1evGuoP0mXp-37" value="ap" style="text;html=1;strokeColor=none;fillColor=none;align=center;verticalAlign=middle;whiteSpace=wrap;rounded=0;" vertex="1" parent="1">
          <mxGeometry x="485" y="422.67" width="60" height="30" as="geometry" />
        </mxCell>
        <mxCell id="1XECBDvFI1evGuoP0mXp-38" value="" style="endArrow=none;html=1;rounded=0;entryX=0.25;entryY=1;entryDx=0;entryDy=0;exitX=0.75;exitY=0;exitDx=0;exitDy=0;" edge="1" parent="1" target="1XECBDvFI1evGuoP0mXp-37">
          <mxGeometry width="50" height="50" relative="1" as="geometry">
            <mxPoint x="470" y="512.6700000000001" as="sourcePoint" />
            <mxPoint x="495" y="502.67" as="targetPoint" />
          </mxGeometry>
        </mxCell>
        <mxCell id="1XECBDvFI1evGuoP0mXp-39" value="" style="endArrow=none;html=1;rounded=0;entryX=0.5;entryY=1;entryDx=0;entryDy=0;exitX=0.5;exitY=0;exitDx=0;exitDy=0;" edge="1" parent="1" target="1XECBDvFI1evGuoP0mXp-37" source="1XECBDvFI1evGuoP0mXp-32">
          <mxGeometry width="50" height="50" relative="1" as="geometry">
            <mxPoint x="537.56" y="510" as="sourcePoint" />
            <mxPoint x="615" y="482.67" as="targetPoint" />
          </mxGeometry>
        </mxCell>
        <mxCell id="1XECBDvFI1evGuoP0mXp-40" value="$$\lambda y$$" style="text;html=1;strokeColor=none;fillColor=none;align=center;verticalAlign=middle;whiteSpace=wrap;rounded=0;" vertex="1" parent="1">
          <mxGeometry x="480" y="342.67" width="60" height="30" as="geometry" />
        </mxCell>
        <mxCell id="1XECBDvFI1evGuoP0mXp-41" value="" style="endArrow=none;html=1;rounded=0;strokeColor=#000000;entryX=0.5;entryY=1;entryDx=0;entryDy=0;exitX=0.5;exitY=0;exitDx=0;exitDy=0;" edge="1" parent="1" source="1XECBDvFI1evGuoP0mXp-37" target="1XECBDvFI1evGuoP0mXp-40">
          <mxGeometry width="50" height="50" relative="1" as="geometry">
            <mxPoint x="400" y="442.67" as="sourcePoint" />
            <mxPoint x="450" y="392.67" as="targetPoint" />
          </mxGeometry>
        </mxCell>
        <mxCell id="1XECBDvFI1evGuoP0mXp-42" value="" style="curved=1;endArrow=classic;html=1;rounded=0;strokeColor=#000000;exitX=0.25;exitY=0;exitDx=0;exitDy=0;entryX=0;entryY=1;entryDx=0;entryDy=0;dashed=1;" edge="1" parent="1" source="1XECBDvFI1evGuoP0mXp-36" target="1XECBDvFI1evGuoP0mXp-40">
          <mxGeometry width="50" height="50" relative="1" as="geometry">
            <mxPoint x="350" y="482.67" as="sourcePoint" />
            <mxPoint x="400" y="432.67" as="targetPoint" />
            <Array as="points">
              <mxPoint x="440" y="482.67" />
              <mxPoint x="450" y="422.67" />
            </Array>
          </mxGeometry>
        </mxCell>
        <mxCell id="1XECBDvFI1evGuoP0mXp-43" value="ap" style="text;html=1;strokeColor=none;fillColor=none;align=center;verticalAlign=middle;whiteSpace=wrap;rounded=0;" vertex="1" parent="1">
          <mxGeometry x="370" y="220" width="60" height="30" as="geometry" />
        </mxCell>
        <mxCell id="1XECBDvFI1evGuoP0mXp-44" value="" style="endArrow=none;html=1;rounded=0;entryX=0.25;entryY=1;entryDx=0;entryDy=0;exitX=0.5;exitY=0;exitDx=0;exitDy=0;" edge="1" parent="1" target="1XECBDvFI1evGuoP0mXp-43" source="1XECBDvFI1evGuoP0mXp-29">
          <mxGeometry width="50" height="50" relative="1" as="geometry">
            <mxPoint x="355.00000000000006" y="310.00000000000006" as="sourcePoint" />
            <mxPoint x="380" y="300" as="targetPoint" />
          </mxGeometry>
        </mxCell>
        <mxCell id="1XECBDvFI1evGuoP0mXp-45" value="" style="endArrow=none;html=1;rounded=0;entryX=0.5;entryY=1;entryDx=0;entryDy=0;exitX=0;exitY=0;exitDx=0;exitDy=0;" edge="1" parent="1" target="1XECBDvFI1evGuoP0mXp-43" source="1XECBDvFI1evGuoP0mXp-40">
          <mxGeometry width="50" height="50" relative="1" as="geometry">
            <mxPoint x="422.56" y="307.33" as="sourcePoint" />
            <mxPoint x="500" y="280" as="targetPoint" />
          </mxGeometry>
        </mxCell>
      </root>
    </mxGraphModel>
  </diagram>
</mxfile>
